HIERARCHY
ROOT Hips
{
	OFFSET 0.000000 0.000000 0.000000
	CHANNELS 6 Xposition Yposition Zposition Xrotation Yrotation Zrotation
	JOINT LeftUpLeg_virtual
	{
		OFFSET 0.000000 0.000000 0.000000
		CHANNELS 3 Xrotation Yrotation Zrotation
		JOINT LeftUpLeg
		{
			OFFSET 13.026900 -6.336304 -1.092800
			CHANNELS 3 Xrotation Yrotation Zrotation
			JOINT LeftLeg
			{
				OFFSET 0.524474 -46.096886 9.782700
				CHANNELS 3 Xrotation Yrotation Zrotation
				JOINT LeftFoot
				{
					OFFSET -0.524474 -53.427422 -12.948200
					CHANNELS 3 Xrotation Yrotation Zrotation
					JOINT LeftToeBase
					{
						OFFSET 0.192200 -14.009700 16.364100
						CHANNELS 3 Xrotation Yrotation Zrotation
						JOINT LeftToe_End
						{
							OFFSET -1.784700 -0.561700 9.474800
							CHANNELS 3 Xrotation Yrotation Zrotation
							End Site
							{
								OFFSET 0 0 0
							}
						}
					}
				}
			}
		}
	}
	JOINT RightUpLeg_virtual
	{
		OFFSET 0.000000 0.000000 0.000000
		CHANNELS 3 Xrotation Yrotation Zrotation
		JOINT RightUpLeg
		{
			OFFSET -12.883000 -6.336304 -1.092800
			CHANNELS 3 Xrotation Yrotation Zrotation
			JOINT RightLeg
			{
				OFFSET -0.524587 -46.096825 9.782800
				CHANNELS 3 Xrotation Yrotation Zrotation
				JOINT RightFoot
				{
					OFFSET 0.524587 -53.427383 -12.948300
					CHANNELS 3 Xrotation Yrotation Zrotation
					JOINT RightToeBase
					{
						OFFSET -0.192200 -14.009700 16.364100
						CHANNELS 3 Xrotation Yrotation Zrotation
						JOINT RightToe_End
						{
							OFFSET 1.784700 -0.561700 9.474800
							CHANNELS 3 Xrotation Yrotation Zrotation
							End Site
							{
								OFFSET 0 0 0
							}
						}
					}
				}
			}
		}
	}
	JOINT Spine_virtual
	{
		OFFSET 0.000000 0.000000 0.000000
		CHANNELS 3 Xrotation Yrotation Zrotation
		JOINT Spine
		{
			OFFSET 0.072000 7.257294 -0.789700
			CHANNELS 3 Xrotation Yrotation Zrotation
			JOINT Spine1
			{
				OFFSET 0.000000 12.508769 -0.658067
				CHANNELS 3 Xrotation Yrotation Zrotation
				JOINT Spine1_split
				{
					OFFSET 0.000000 12.508769 -0.658067
					CHANNELS 3 Xrotation Yrotation Zrotation
					JOINT Spine2
					{
						OFFSET 0.000000 12.508769 -0.658067
						CHANNELS 3 Xrotation Yrotation Zrotation
						JOINT Neck_virtual
						{
							OFFSET 0.000000 0.000000 0.000000
							CHANNELS 3 Xrotation Yrotation Zrotation
							JOINT Neck
							{
								OFFSET 0.000000 14.033295 7.520400
								CHANNELS 3 Xrotation Yrotation Zrotation
								JOINT Head
								{
									OFFSET 0.000000 8.198502 5.703100
									CHANNELS 3 Xrotation Yrotation Zrotation
									JOINT HeadTop_End
									{
										OFFSET 0.000000 17.760803 13.332701
										CHANNELS 3 Xrotation Yrotation Zrotation
										End Site
										{
											OFFSET 0 0 0
										}
									}
								}
							}
						}
						JOINT LeftShoulder_virtual
						{
							OFFSET 0.000000 0.000000 0.000000
							CHANNELS 3 Xrotation Yrotation Zrotation
							JOINT LeftShoulder
							{
								OFFSET 6.292450 5.785301 -0.669000
								CHANNELS 3 Xrotation Yrotation Zrotation
								JOINT LeftShoulder_split
								{
									OFFSET 6.292450 5.785301 -0.669000
									CHANNELS 3 Xrotation Yrotation Zrotation
									JOINT LeftArm
									{
										OFFSET 13.907140 -6.093903 1.965100
										CHANNELS 3 Xrotation Yrotation Zrotation
										JOINT LeftForeArm
										{
											OFFSET 34.140198 0.000000 0.000000
											CHANNELS 3 Xrotation Yrotation Zrotation
											JOINT LeftHand
											{
												OFFSET 40.960209 0.000000 0.000000
												CHANNELS 3 Xrotation Yrotation Zrotation
												End Site
												{
													OFFSET 0 0 0
												}
											}
										}
									}
								}
							}
						}
						JOINT RightShoulder_virtual
						{
							OFFSET 0.000000 0.000000 0.000000
							CHANNELS 3 Xrotation Yrotation Zrotation
							JOINT RightShoulder
							{
								OFFSET -6.292450 5.785301 -0.669000
								CHANNELS 3 Xrotation Yrotation Zrotation
								JOINT RightShoulder_split
								{
									OFFSET -6.292450 5.785301 -0.669000
									CHANNELS 3 Xrotation Yrotation Zrotation
									JOINT RightArm
									{
										OFFSET -13.907140 -6.093903 1.965100
										CHANNELS 3 Xrotation Yrotation Zrotation
										JOINT RightForeArm
										{
											OFFSET -34.140198 0.000000 0.000000
											CHANNELS 3 Xrotation Yrotation Zrotation
											JOINT RightHand
											{
												OFFSET -40.960209 0.000000 0.000000
												CHANNELS 3 Xrotation Yrotation Zrotation
												End Site
												{
													OFFSET 0 0 0
												}
											}
										}
									}
								}
							}
						}
					}
				}
			}
		}
	}
}
MOTION
Frames: 9
Frame Time: 0.03333333
-6.191662 102.546753 8.183899 0.000000 0.000000 0.000000 -7.866716 24.283554 8.239740 -21.296716 -14.849330 5.183042 41.887604 -0.406697 0.196574 -16.443824 -5.206996 -16.621803 -0.000065 0.000000 -0.000001 0.000000 0.000000 0.000000 -7.866716 24.283554 8.239740 -16.215573 -29.295262 -26.167232 48.510001 -0.088657 -0.361083 -29.827699 -4.800674 9.703955 -0.000104 0.000009 0.000001 0.000000 0.000000 0.000000 -7.866716 24.283554 8.239740 19.010904 1.210516 0.734903 5.096424 1.511982 -0.476952 0.000000 0.000000 0.000000 0.000000 0.000000 0.000000 5.088411 1.550697 -0.475986 -18.172862 -7.374430 -11.412607 -20.891284 -12.073565 1.777840 0.000000 0.000000 0.000000 5.088411 1.550697 -0.475986 -0.787871 -12.075489 -26.714956 0.000000 0.000000 0.000000 -11.942306 -3.432189 -26.261546 55.390877 -49.285180 10.889090 0.000000 0.000000 0.000000 5.088411 1.550697 -0.475986 7.717152 -7.373787 -5.050555 0.000000 0.000000 0.000000 -43.972150 -21.360503 -11.904040 -118.831317 10.484309 148.086479 0.000000 0.000000 0.000000 
-6.532282 103.286102 9.377457 0.000000 0.000000 0.000000 -7.959074 28.262476 8.730654 -21.075561 -18.651568 3.917276 39.946016 -0.386339 0.185624 -15.744201 -5.008350 -17.049236 -0.000065 -0.000001 -0.000001 0.000000 0.000000 0.000000 -7.959074 28.262476 8.730654 -14.584921 -33.223171 -26.044695 46.311893 -0.088578 -0.336003 -30.060093 -5.756657 9.690995 -0.000104 0.000009 0.000001 0.000000 0.000000 0.000000 -7.959074 28.262476 8.730654 19.017653 0.295778 1.046959 5.137559 -0.395264 -0.742505 0.000000 0.000000 0.000000 0.000000 0.000000 0.000000 5.145102 -0.355855 -0.748201 -17.870379 -5.140435 -11.214739 -24.990209 -9.168328 -0.055150 0.000000 0.000000 0.000000 5.145102 -0.355855 -0.748201 -0.729891 -12.936520 -24.594046 0.000000 0.000000 0.000000 -7.448409 5.738902 -26.622710 53.665893 -55.184076 15.413773 0.000000 0.000000 0.000000 5.145102 -0.355855 -0.748201 8.112590 -11.609560 1.893597 0.000000 0.000000 0.000000 -67.056168 -34.147616 -17.067567 -102.494228 5.567624 145.072371 0.000000 0.000000 0.000000 
-6.978548 103.949242 9.696270 0.000000 0.000000 0.000000 -7.317928 29.357922 8.741819 -20.978854 -19.879561 3.626707 38.130795 -0.389492 0.168517 -14.910016 -4.598882 -17.284779 -0.000065 -0.000002 -0.000001 0.000000 0.000000 0.000000 -7.317928 29.357922 8.741819 -14.500312 -34.300172 -25.655971 45.029275 -0.103914 -0.325852 -29.775660 -6.092529 9.366687 -0.000104 0.000007 0.000001 0.000000 0.000000 0.000000 -7.317928 29.357922 8.741819 18.928339 -0.892970 1.111869 4.855965 -2.915589 -1.485521 0.000000 0.000000 0.000000 0.000000 0.000000 0.000000 4.883683 -2.873582 -1.502393 -18.060805 -5.500304 -5.127129 -24.573318 -6.833848 -0.602035 0.000000 0.000000 0.000000 4.883683 -2.873582 -1.502393 -0.316025 -12.738292 -20.094184 0.000000 0.000000 0.000000 -3.377282 12.102858 -31.052752 48.967890 -55.386936 15.024111 0.000000 0.000000 0.000000 4.883683 -2.873582 -1.502393 7.432617 -14.000972 15.289375 0.000000 0.000000 0.000000 -88.040237 -27.657374 -16.830783 -88.510345 5.611643 143.384331 0.000000 0.000000 0.000000 
-7.074377 104.400269 9.387676 0.000000 0.000000 0.000000 -5.861384 26.356633 7.454608 -20.583950 -17.807985 5.157199 37.435075 -0.419826 0.154395 -14.782869 -3.739335 -17.109364 -0.000065 -0.000001 -0.000001 0.000000 0.000000 0.000000 -5.861384 26.356633 7.454608 -15.079367 -31.487377 -23.930167 44.609454 -0.063798 -0.312031 -28.965548 -5.941845 8.860400 -0.000104 0.000009 0.000001 0.000000 0.000000 0.000000 -5.861384 26.356633 7.454608 18.828407 -1.467218 0.842200 4.550509 -3.858602 -1.671252 0.000000 0.000000 0.000000 0.000000 0.000000 0.000000 4.578954 -3.822017 -1.696235 -14.922695 -5.357102 0.196063 -24.371155 -4.007911 -2.552567 0.000000 0.000000 0.000000 4.578954 -3.822017 -1.696235 -0.221531 -12.860661 -18.877576 0.000000 0.000000 0.000000 -1.061234 14.809874 -32.315674 50.440711 -54.077599 16.009028 0.000000 0.000000 0.000000 4.578954 -3.822017 -1.696235 7.322576 -12.708481 21.788221 0.000000 0.000000 0.000000 -89.621767 -19.762179 -15.733672 -88.461373 9.776979 144.189965 0.000000 0.000000 0.000000 
-6.798545 104.735954 8.804474 0.000000 0.000000 0.000000 -4.267433 21.147680 5.528073 -20.159192 -13.766704 7.780612 37.539082 -0.463313 0.144924 -15.200968 -2.923520 -16.678951 -0.000065 -0.000001 -0.000001 0.000000 0.000000 0.000000 -4.267433 21.147680 5.528073 -15.754873 -26.611455 -21.184388 44.390882 0.021901 -0.288941 -27.729637 -5.738187 8.376325 -0.000104 0.000009 0.000001 0.000000 0.000000 0.000000 -4.267433 21.147680 5.528073 19.124453 -1.435894 0.484964 5.072661 -3.373055 -1.212726 0.000000 0.000000 0.000000 0.000000 0.000000 0.000000 5.087337 -3.346281 -1.238952 -14.129565 -3.866753 0.608831 -25.386992 -2.477270 -2.360062 0.000000 0.000000 0.000000 5.087337 -3.346281 -1.238952 -0.008487 -10.673450 -18.318844 0.000000 0.000000 0.000000 -1.564262 12.468345 -31.473662 55.753806 -52.827299 17.774169 0.000000 0.000000 0.000000 5.087337 -3.346281 -1.238952 6.854854 -8.625329 17.121727 0.000000 0.000000 0.000000 -81.879987 -24.154891 -12.454407 -95.197715 12.244535 145.632392 0.000000 0.000000 0.000000 
-6.307550 105.065697 8.158707 0.000000 0.000000 0.000000 -3.128826 16.448195 3.938998 -19.972520 -10.111066 9.987684 37.733554 -0.499387 0.138456 -15.580648 -2.212837 -16.182996 -0.000065 -0.000001 -0.000001 0.000000 0.000000 0.000000 -3.128826 16.448195 3.938998 -16.428560 -22.304801 -18.812393 43.975306 0.091750 -0.267166 -26.356716 -5.532483 8.151273 -0.000104 0.000009 0.000001 0.000000 0.000000 0.000000 -3.128826 16.448195 3.938998 19.180698 -0.858295 0.250140 5.130050 -2.094929 -0.843495 0.000000 0.000000 0.000000 0.000000 0.000000 0.000000 5.136512 -2.075506 -0.863115 -14.193351 -2.694918 -1.208742 -26.438749 -2.264635 -1.605992 0.000000 0.000000 0.000000 5.136512 -2.075506 -0.863115 -0.030727 -9.953686 -19.570807 0.000000 0.000000 0.000000 -2.193699 11.932370 -30.434609 57.080734 -54.492902 20.010583 0.000000 0.000000 0.000000 5.136512 -2.075506 -0.863115 6.874494 -6.693018 12.973464 0.000000 0.000000 0.000000 -84.445700 -26.484535 -10.445974 -92.359642 9.746914 146.164300 0.000000 0.000000 0.000000 
-5.778653 105.388016 7.635456 0.000000 0.000000 0.000000 -2.648374 13.647819 3.212783 -19.799661 -7.910470 10.956542 37.672554 -0.523646 0.132307 -15.666743 -1.696973 -15.711003 -0.000065 -0.000001 -0.000001 0.000000 0.000000 0.000000 -2.648374 13.647819 3.212783 -16.806836 -19.693756 -17.656160 43.462942 0.117281 -0.255198 -25.265841 -5.411847 8.198642 -0.000104 0.000007 0.000001 0.000000 0.000000 0.000000 -2.648374 13.647819 3.212783 18.934545 -0.492784 0.250262 4.642582 -1.427783 -0.570445 0.000000 0.000000 0.000000 0.000000 0.000000 0.000000 4.647288 -1.412076 -0.584677 -12.426126 -2.144591 -2.452322 -26.881374 -2.471272 -0.966096 0.000000 0.000000 0.000000 4.647288 -1.412076 -0.584677 0.006949 -9.057132 -20.314897 0.000000 0.000000 0.000000 -2.276521 12.295098 -30.836436 55.390737 -56.304156 20.086741 0.000000 0.000000 0.000000 4.647288 -1.412076 -0.584677 7.001977 -5.632084 9.240086 0.000000 0.000000 0.000000 -88.482526 -27.311145 -8.009449 -95.114120 11.258062 149.370186 0.000000 0.000000 0.000000 
-5.260982 105.633766 7.274899 0.000000 0.000000 0.000000 -2.774085 13.072192 3.405921 -19.603367 -7.189069 10.577962 37.427254 -0.537814 0.126413 -15.464102 -1.641217 -15.267269 -0.000065 -0.000002 -0.000001 0.000000 0.000000 0.000000 -2.774085 13.072192 3.405921 -16.797168 -18.893179 -17.924542 43.098101 0.098842 -0.255888 -24.678367 -5.471428 8.475004 -0.000104 0.000009 0.000001 0.000000 0.000000 0.000000 -2.774085 13.072192 3.405921 18.966641 -0.359914 0.239129 4.746980 -1.173642 -0.656538 0.000000 0.000000 0.000000 0.000000 0.000000 0.000000 4.752278 -1.154364 -0.668327 -12.746825 -2.967762 -0.954355 -26.247036 -2.603651 -1.287888 0.000000 0.000000 0.000000 4.752278 -1.154364 -0.668327 -0.013495 -9.635005 -19.746198 0.000000 0.000000 0.000000 -3.124487 11.594711 -30.540836 54.134812 -56.791551 19.838230 0.000000 0.000000 0.000000 4.752278 -1.154364 -0.668327 7.557121 -6.014598 9.279870 0.000000 0.000000 0.000000 -90.007536 -26.922919 -5.731283 -100.407927 15.338925 151.379778 0.000000 0.000000 0.000000 
-4.857019 105.759598 6.972870 0.000000 0.000000 0.000000 -3.231837 12.832403 3.700701 -19.261717 -6.582430 10.239610 37.350425 -0.545681 0.123599 -15.332998 -1.884507 -14.931494 -0.000065 0.000000 -0.000001 0.000000 0.000000 0.000000 -3.231837 12.832403 3.700701 -16.518275 -18.477081 -18.317077 42.939255 0.080794 -0.258723 -24.321315 -5.489542 8.728316 -0.000104 0.000007 0.000001 0.000000 0.000000 0.000000 -3.231837 12.832403 3.700701 18.955587 -0.358575 0.321357 4.750242 -1.192217 -0.601706 0.000000 0.000000 0.000000 0.000000 0.000000 0.000000 4.756427 -1.171549 -0.613350 -12.710235 -3.356317 -0.085783 -25.800391 -2.626199 -1.424364 0.000000 0.000000 0.000000 4.756427 -1.171549 -0.613350 0.009319 -10.360670 -18.406766 0.000000 0.000000 0.000000 -3.421451 10.723627 -31.201189 54.553657 -56.695133 20.724643 0.000000 0.000000 0.000000 4.756427 -1.171549 -0.613350 7.922313 -6.001834 9.698070 0.000000 0.000000 0.000000 -88.415733 -26.899752 -3.761472 -102.000495 16.787492 152.043248 0.000000 0.000000 0.000000 
